<?xml version="1.0" encoding="UTF-8"?>
<!DOCTYPE svg PUBLIC "-//W3C//DTD SVG 1.1//EN" "http://www.w3.org/Graphics/SVG/1.1/DTD/svg11.dtd">
<svg version="1.1" xmlns="http://www.w3.org/2000/svg" xmlns:xlink="http://www.w3.org/1999/xlink" x="0" y="0" width="183" height="100" viewBox="0, 0, 183, 100">
  <g id="Background">
    <rect x="0" y="0" width="183" height="100" fill="#000000" fill-opacity="0"/>
  </g>
  <g id="Layer_1">
    <path d="M150.34,61.431 L150.34,52.881 L154.959,52.881 C159.073,52.881 160.537,54.573 160.537,57.178 C160.537,59.968 159.028,61.431 154.959,61.431 z M150.34,47.943 L150.34,40.399 L154.227,40.399 C157.793,40.399 158.982,41.862 158.982,44.103 C158.982,46.48 157.793,47.943 154.273,47.943 z M144.306,66.369 L155.142,66.369 C162.229,66.369 166.801,64.083 166.801,57.591 C166.801,53.201 163.92,50.778 160.811,50.046 C163.508,49.132 165.201,47.029 165.201,43.6 C165.201,38.754 162.365,35.462 155.004,35.462 L144.306,35.462 z M128.002,61.751 C131.157,61.751 132.894,60.196 132.894,57.865 C132.894,55.945 131.752,54.847 129.419,54.116 L125.533,52.927 C120.138,51.235 118.217,48.217 118.217,44.377 C118.217,39.576 121.235,35.004 128.825,35.004 C134.102,35.004 137.109,37.139 138.77,39.478 L134.968,43.28 C134.955,43.263 134.7,42.879 134.688,42.862 C133.541,41.2 131.63,40.125 128.825,40.125 C125.99,40.125 124.436,41.771 124.436,44.011 C124.436,45.841 125.35,46.983 127.636,47.715 L131.568,48.904 C137.1,50.641 139.112,53.476 139.112,57.407 C139.112,63.397 134.448,66.872 128.002,66.872 C121.256,66.872 118.276,63.689 116.975,61.274 L120.708,57.54 C121.173,58.219 121.627,58.818 121.9,59.169 C121.969,59.26 122.038,59.35 122.111,59.437 C122.14,59.473 122.157,59.495 122.157,59.495 C123.286,60.821 124.964,61.751 128.002,61.751 M138.77,39.478 L138.77,39.478 L138.77,39.479 C138.793,39.511 138.747,39.446 138.77,39.478 M106.394,47.898 L94.015,47.898 L94.015,35.462 L87.98,35.462 L87.98,66.369 L94.015,66.369 L94.015,52.835 L106.394,52.835 L106.394,66.369 L112.383,66.369 L112.383,35.462 L106.394,35.462 z M65.476,81.988 L72.451,75.013 L62.449,65.01 L72.451,55.008 L65.476,48.033 L55.473,58.035 L45.472,48.033 L38.496,55.008 L48.498,65.01 L38.496,75.012 L45.472,81.987 L55.473,71.986 z M35.47,51.982 L42.445,45.007 L25.468,28.029 L18.493,35.005 z M45.472,41.979 L52.447,35.004 L45.472,28.029 L38.496,35.004 z M28.494,25.003 L35.47,18.027 L42.445,25.003 L35.47,31.978 z" fill="#FFFFFF"/>
  </g>
</svg>
